<mxfile host="Electron" modified="2023-11-14T21:14:22.724Z" agent="Mozilla/5.0 (Macintosh; Intel Mac OS X 10_15_7) AppleWebKit/537.36 (KHTML, like Gecko) draw.io/22.0.3 Chrome/114.0.5735.289 Electron/25.8.4 Safari/537.36" etag="J6S2NIiTvZw5hxNNW_zm" version="22.0.3" type="device">
  <diagram id="C5RBs43oDa-KdzZeNtuy" name="Page-1">
    <mxGraphModel dx="1478" dy="812" grid="1" gridSize="10" guides="1" tooltips="1" connect="1" arrows="1" fold="1" page="1" pageScale="1" pageWidth="827" pageHeight="1169" math="0" shadow="0">
      <root>
        <mxCell id="WIyWlLk6GJQsqaUBKTNV-0" />
        <mxCell id="WIyWlLk6GJQsqaUBKTNV-1" parent="WIyWlLk6GJQsqaUBKTNV-0" />
        <mxCell id="zkfFHV4jXpPFQw0GAbJ--0" value="Publication" style="swimlane;fontStyle=1;align=center;verticalAlign=top;childLayout=stackLayout;horizontal=1;startSize=26;horizontalStack=0;resizeParent=1;resizeLast=0;collapsible=1;marginBottom=0;rounded=1;shadow=0;strokeWidth=1;sketch=1;curveFitting=1;jiggle=2;labelBackgroundColor=none;fillColor=#dae8fc;strokeColor=#6c8ebf;" parent="WIyWlLk6GJQsqaUBKTNV-1" vertex="1">
          <mxGeometry x="30" y="30" width="160" height="60" as="geometry">
            <mxRectangle x="230" y="140" width="160" height="26" as="alternateBounds" />
          </mxGeometry>
        </mxCell>
        <mxCell id="zkfFHV4jXpPFQw0GAbJ--6" value="SituationRecord" style="swimlane;fontStyle=1;align=center;verticalAlign=top;childLayout=stackLayout;horizontal=1;startSize=26;horizontalStack=0;resizeParent=1;resizeLast=0;collapsible=1;marginBottom=0;rounded=1;shadow=0;strokeWidth=1;sketch=1;curveFitting=1;jiggle=2;labelBackgroundColor=none;fillColor=#d5e8d4;strokeColor=#82b366;" parent="WIyWlLk6GJQsqaUBKTNV-1" vertex="1">
          <mxGeometry x="220" y="190" width="160" height="104" as="geometry">
            <mxRectangle x="130" y="380" width="160" height="26" as="alternateBounds" />
          </mxGeometry>
        </mxCell>
        <mxCell id="zkfFHV4jXpPFQw0GAbJ--7" value="validity: Validity" style="text;align=left;verticalAlign=top;spacingLeft=4;spacingRight=4;overflow=hidden;rotatable=0;points=[[0,0.5],[1,0.5]];portConstraint=eastwest;rounded=1;sketch=1;curveFitting=1;jiggle=2;labelBackgroundColor=none;fontColor=#1D3557;" parent="zkfFHV4jXpPFQw0GAbJ--6" vertex="1">
          <mxGeometry y="26" width="160" height="26" as="geometry" />
        </mxCell>
        <mxCell id="zkfFHV4jXpPFQw0GAbJ--8" value="location: Point" style="text;align=left;verticalAlign=top;spacingLeft=4;spacingRight=4;overflow=hidden;rotatable=0;points=[[0,0.5],[1,0.5]];portConstraint=eastwest;rounded=1;shadow=0;html=0;sketch=1;curveFitting=1;jiggle=2;labelBackgroundColor=none;fontColor=#1D3557;" parent="zkfFHV4jXpPFQw0GAbJ--6" vertex="1">
          <mxGeometry y="52" width="160" height="26" as="geometry" />
        </mxCell>
        <mxCell id="zkfFHV4jXpPFQw0GAbJ--10" value="event: Accident" style="text;align=left;verticalAlign=top;spacingLeft=4;spacingRight=4;overflow=hidden;rotatable=0;points=[[0,0.5],[1,0.5]];portConstraint=eastwest;fontStyle=0;rounded=1;sketch=1;curveFitting=1;jiggle=2;labelBackgroundColor=none;fontColor=#1D3557;" parent="zkfFHV4jXpPFQw0GAbJ--6" vertex="1">
          <mxGeometry y="78" width="160" height="26" as="geometry" />
        </mxCell>
        <mxCell id="zkfFHV4jXpPFQw0GAbJ--13" value="Validity" style="swimlane;fontStyle=0;align=center;verticalAlign=top;childLayout=stackLayout;horizontal=1;startSize=26;horizontalStack=0;resizeParent=1;resizeLast=0;collapsible=1;marginBottom=0;rounded=1;shadow=0;strokeWidth=1;sketch=1;curveFitting=1;jiggle=2;labelBackgroundColor=none;fillColor=#f8cecc;strokeColor=#b85450;" parent="WIyWlLk6GJQsqaUBKTNV-1" vertex="1">
          <mxGeometry x="40" y="320" width="115" height="80" as="geometry">
            <mxRectangle x="340" y="380" width="170" height="26" as="alternateBounds" />
          </mxGeometry>
        </mxCell>
        <mxCell id="zkfFHV4jXpPFQw0GAbJ--14" value="startTime" style="text;align=left;verticalAlign=top;spacingLeft=4;spacingRight=4;overflow=hidden;rotatable=0;points=[[0,0.5],[1,0.5]];portConstraint=eastwest;rounded=1;sketch=1;curveFitting=1;jiggle=2;labelBackgroundColor=none;fontColor=#1D3557;" parent="zkfFHV4jXpPFQw0GAbJ--13" vertex="1">
          <mxGeometry y="26" width="115" height="26" as="geometry" />
        </mxCell>
        <mxCell id="356kWEPn9TjfiCAGE1Sa-7" value="endTime" style="text;align=left;verticalAlign=top;spacingLeft=4;spacingRight=4;overflow=hidden;rotatable=0;points=[[0,0.5],[1,0.5]];portConstraint=eastwest;rounded=1;sketch=1;curveFitting=1;jiggle=2;labelBackgroundColor=none;fontColor=#1D3557;" parent="zkfFHV4jXpPFQw0GAbJ--13" vertex="1">
          <mxGeometry y="52" width="115" height="26" as="geometry" />
        </mxCell>
        <mxCell id="zkfFHV4jXpPFQw0GAbJ--17" value="Situation" style="swimlane;fontStyle=1;align=center;verticalAlign=top;childLayout=stackLayout;horizontal=1;startSize=26;horizontalStack=0;resizeParent=1;resizeLast=0;collapsible=1;marginBottom=0;rounded=1;shadow=0;strokeWidth=1;sketch=1;curveFitting=1;jiggle=2;labelBackgroundColor=none;fillColor=#e1d5e7;strokeColor=#9673a6;" parent="WIyWlLk6GJQsqaUBKTNV-1" vertex="1">
          <mxGeometry x="120" y="110" width="160" height="60" as="geometry">
            <mxRectangle x="550" y="140" width="160" height="26" as="alternateBounds" />
          </mxGeometry>
        </mxCell>
        <mxCell id="356kWEPn9TjfiCAGE1Sa-0" value="Point" style="swimlane;fontStyle=0;align=center;verticalAlign=top;childLayout=stackLayout;horizontal=1;startSize=26;horizontalStack=0;resizeParent=1;resizeLast=0;collapsible=1;marginBottom=0;rounded=1;shadow=0;strokeWidth=1;sketch=1;curveFitting=1;jiggle=2;labelBackgroundColor=none;fillColor=#f8cecc;strokeColor=#b85450;" parent="WIyWlLk6GJQsqaUBKTNV-1" vertex="1">
          <mxGeometry x="190" y="320" width="115" height="80" as="geometry">
            <mxRectangle x="340" y="380" width="170" height="26" as="alternateBounds" />
          </mxGeometry>
        </mxCell>
        <mxCell id="356kWEPn9TjfiCAGE1Sa-1" value="latitude" style="text;align=left;verticalAlign=top;spacingLeft=4;spacingRight=4;overflow=hidden;rotatable=0;points=[[0,0.5],[1,0.5]];portConstraint=eastwest;rounded=1;sketch=1;curveFitting=1;jiggle=2;labelBackgroundColor=none;fontColor=#1D3557;" parent="356kWEPn9TjfiCAGE1Sa-0" vertex="1">
          <mxGeometry y="26" width="115" height="26" as="geometry" />
        </mxCell>
        <mxCell id="356kWEPn9TjfiCAGE1Sa-6" value="longitude" style="text;align=left;verticalAlign=top;spacingLeft=4;spacingRight=4;overflow=hidden;rotatable=0;points=[[0,0.5],[1,0.5]];portConstraint=eastwest;rounded=1;sketch=1;curveFitting=1;jiggle=2;labelBackgroundColor=none;fontColor=#1D3557;" parent="356kWEPn9TjfiCAGE1Sa-0" vertex="1">
          <mxGeometry y="52" width="115" height="26" as="geometry" />
        </mxCell>
        <mxCell id="356kWEPn9TjfiCAGE1Sa-3" value="Accident" style="swimlane;fontStyle=0;align=center;verticalAlign=top;childLayout=stackLayout;horizontal=1;startSize=26;horizontalStack=0;resizeParent=1;resizeLast=0;collapsible=1;marginBottom=0;rounded=1;shadow=0;strokeWidth=1;sketch=1;curveFitting=1;jiggle=2;labelBackgroundColor=none;fillColor=#f8cecc;strokeColor=#b85450;" parent="WIyWlLk6GJQsqaUBKTNV-1" vertex="1">
          <mxGeometry x="340" y="320" width="125" height="100" as="geometry">
            <mxRectangle x="340" y="380" width="170" height="26" as="alternateBounds" />
          </mxGeometry>
        </mxCell>
        <mxCell id="356kWEPn9TjfiCAGE1Sa-4" value="cause: Enum" style="text;align=left;verticalAlign=top;spacingLeft=4;spacingRight=4;overflow=hidden;rotatable=0;points=[[0,0.5],[1,0.5]];portConstraint=eastwest;rounded=1;sketch=1;curveFitting=1;jiggle=2;labelBackgroundColor=none;fontColor=#1D3557;" parent="356kWEPn9TjfiCAGE1Sa-3" vertex="1">
          <mxGeometry y="26" width="125" height="22" as="geometry" />
        </mxCell>
        <mxCell id="356kWEPn9TjfiCAGE1Sa-8" value="accidentType: Enum" style="text;align=left;verticalAlign=top;spacingLeft=4;spacingRight=4;overflow=hidden;rotatable=0;points=[[0,0.5],[1,0.5]];portConstraint=eastwest;rounded=1;sketch=1;curveFitting=1;jiggle=2;labelBackgroundColor=none;fontColor=#1D3557;" parent="356kWEPn9TjfiCAGE1Sa-3" vertex="1">
          <mxGeometry y="48" width="125" height="26" as="geometry" />
        </mxCell>
        <mxCell id="356kWEPn9TjfiCAGE1Sa-9" value="collisionType: Enum" style="text;align=left;verticalAlign=top;spacingLeft=4;spacingRight=4;overflow=hidden;rotatable=0;points=[[0,0.5],[1,0.5]];portConstraint=eastwest;rounded=1;sketch=1;curveFitting=1;jiggle=2;labelBackgroundColor=none;fontColor=#1D3557;" parent="356kWEPn9TjfiCAGE1Sa-3" vertex="1">
          <mxGeometry y="74" width="125" height="22" as="geometry" />
        </mxCell>
        <mxCell id="356kWEPn9TjfiCAGE1Sa-14" value="" style="endArrow=diamondThin;endFill=0;endSize=24;html=1;rounded=1;fontSize=12;curved=1;entryX=0.5;entryY=1;entryDx=0;entryDy=0;sketch=1;curveFitting=1;jiggle=2;labelBackgroundColor=none;strokeColor=#457B9D;fontColor=default;" parent="WIyWlLk6GJQsqaUBKTNV-1" source="zkfFHV4jXpPFQw0GAbJ--17" target="zkfFHV4jXpPFQw0GAbJ--0" edge="1">
          <mxGeometry width="160" relative="1" as="geometry">
            <mxPoint x="180" y="210" as="sourcePoint" />
            <mxPoint x="180" y="200" as="targetPoint" />
            <Array as="points">
              <mxPoint x="60" y="180" />
            </Array>
          </mxGeometry>
        </mxCell>
        <mxCell id="356kWEPn9TjfiCAGE1Sa-16" value="*" style="edgeLabel;html=1;align=center;verticalAlign=middle;resizable=0;points=[];fontSize=16;rounded=1;sketch=1;curveFitting=1;jiggle=2;labelBackgroundColor=none;fontColor=#1D3557;" parent="356kWEPn9TjfiCAGE1Sa-14" vertex="1" connectable="0">
          <mxGeometry x="-0.6135" y="-1" relative="1" as="geometry">
            <mxPoint x="16" y="-9" as="offset" />
          </mxGeometry>
        </mxCell>
        <mxCell id="356kWEPn9TjfiCAGE1Sa-19" value="" style="endArrow=diamondThin;endFill=0;endSize=24;html=1;rounded=1;fontSize=12;curved=1;entryX=0.5;entryY=1;entryDx=0;entryDy=0;sketch=1;curveFitting=1;jiggle=2;labelBackgroundColor=none;strokeColor=#457B9D;fontColor=default;" parent="WIyWlLk6GJQsqaUBKTNV-1" source="zkfFHV4jXpPFQw0GAbJ--6" target="zkfFHV4jXpPFQw0GAbJ--17" edge="1">
          <mxGeometry width="160" relative="1" as="geometry">
            <mxPoint x="235" y="277" as="sourcePoint" />
            <mxPoint x="195" y="210" as="targetPoint" />
            <Array as="points">
              <mxPoint x="130" y="290" />
            </Array>
          </mxGeometry>
        </mxCell>
        <mxCell id="356kWEPn9TjfiCAGE1Sa-20" value="*" style="edgeLabel;html=1;align=center;verticalAlign=middle;resizable=0;points=[];fontSize=16;rounded=1;sketch=1;curveFitting=1;jiggle=2;labelBackgroundColor=none;fontColor=#1D3557;" parent="356kWEPn9TjfiCAGE1Sa-19" vertex="1" connectable="0">
          <mxGeometry x="-0.6135" y="-1" relative="1" as="geometry">
            <mxPoint x="23" y="-9" as="offset" />
          </mxGeometry>
        </mxCell>
      </root>
    </mxGraphModel>
  </diagram>
</mxfile>
